<svg width="32" height="32" viewBox="0 0 32 32" fill="none" xmlns="http://www.w3.org/2000/svg">
<g clip-path="url(#clip0_17_74)">
<path d="M29 4H3C2.20435 4 1.44129 4.31607 0.87868 4.87868C0.31607 5.44129 0 6.20435 0 7L0 25C0 25.7956 0.31607 26.5587 0.87868 27.1213C1.44129 27.6839 2.20435 28 3 28H29C29.7956 28 30.5587 27.6839 31.1213 27.1213C31.6839 26.5587 32 25.7956 32 25V7C32 6.20435 31.6839 5.44129 31.1213 4.87868C30.5587 4.31607 29.7956 4 29 4ZM25.468 6L16 13.476L6.532 6H25.468ZM4 26V9.292L16 18.522L28 9.29V26H4Z" fill="white"/>
</g>
<defs>
<clipPath id="clip0_17_74">
<rect width="32" height="32" fill="white"/>
</clipPath>
</defs>
</svg>
