<svg width="32" height="32" viewBox="0 0 32 32" fill="none" xmlns="http://www.w3.org/2000/svg">
<path d="M28.1207 1.79468H3.57569C2.40033 1.79468 1.44769 2.7182 1.44769 3.85804V28.5304C1.44769 29.6702 2.40065 30.5947 3.57569 30.5947H28.1207C29.296 30.5947 30.2474 29.6699 30.2474 28.5304V3.85804C30.2474 2.71852 29.296 1.79468 28.1207 1.79468ZM10.1789 25.9022H5.82753V12.8993H10.1789V25.9022ZM8.00353 11.123H7.97441C6.51521 11.123 5.56929 10.1249 5.56929 8.87564C5.56929 7.60108 6.54305 6.6302 8.03105 6.6302C9.51937 6.6302 10.4349 7.60076 10.4637 8.87564C10.4637 10.1252 9.51969 11.123 8.00353 11.123ZM25.8647 25.9022H21.5146V18.9454C21.5146 17.1969 20.8842 16.0043 19.3111 16.0043C18.1075 16.0043 17.3933 16.8091 17.0797 17.5857C16.9632 17.8635 16.9347 18.2513 16.9347 18.6392V25.9019H12.5853C12.5853 25.9019 12.6423 14.1185 12.5853 12.899H16.9351V14.7425C17.5127 13.8568 18.5443 12.5931 20.8547 12.5931C23.7178 12.5931 25.8647 14.4504 25.8647 18.4462V25.9022ZM16.9069 14.7838C16.9146 14.7716 16.9248 14.7566 16.9351 14.7425V14.7838H16.9069Z" fill="white"/>
</svg>
